<svg version="1.0" xmlns="http://www.w3.org/2000/svg" width="1500.000000pt" 
     height="1500.000000pt" viewBox="0 0 1500.000000 1500.000000" 
     preserveAspectRatio="xMidYMid meet">
  <g transform="translate(0.000000,1500.000000) scale(0.100000,-0.100000)" fill="#d4af37" stroke="none">
    <path d="M5 7495 c0 -3289 1 -4636 2 -2993 2 1642 2 4333 0 5980 -1 1646 -2 302 -2 -2987z"/>
    <path d="M6703 11153 c-18 -7 -16 -33 2 -33 9 0 32 -11 53 -23 33 -21 140 -74 232 -114 19 -9 42 -20 50 -25 8 -4 22 -11 30 -14 8 -3 29 -12 45 -19 17 -7 46 -20 65 -28 76 -33 116 -50 138 -62 l24 -12 -2 -579 c0 -318 -4 -582 -8 -585 -4 -4 -25 -10 -47 -13 -141 -20 -195 -29 -235 -41 l-45 -13 -1 -59 c0 -39 -6 -68 -17 -83 -16 -22 -17 -85 -17 -737 0 -703 2 -745 31 -716 6 6 10 277 9 704 0 569 2 698 13 713 10 13 33 21 83 26 77 9 221 35 273 50 19 5 38 7 42 4 5 -3 9 -340 9 -749 0 -489 3 -746 10 -750 6 -3 19 -4 29 0 18 5 19 28 16 750 -3 689 -2 746 13 755 16 9 15 11 -3 26 -23 18 -109 13 -205 -12 -30 -8 -67 -14 -83 -14 -16 0 -53 -7 -83 -16 -64 -18 -84 -14 -84 20 0 40 11 56 37 56 13 0 32 4 42 9 9 5 46 14 82 19 96 15 213 42 223 53 19 18 48 8 106 -36 32 -25 63 -45 69 -45 15 0 31 -35 31 -69 0 -37 -24 -41 -63 -11 -14 11 -30 20 -36 20 -15 0 -14 -26 2 -34 6 -3 26 -15 42 -26 17 -11 37 -23 46 -26 29 -10 36 -45 28 -139 -4 -49 -8 -357 -8 -682 l-1 -593 25 -6 c14 -4 28 -4 31 -1 3 3 5 284 4 626 -1 691 -6 640 68 602 20 -11 55 -28 77 -38 34 -16 40 -24 39 -49 -2 -23 -5 -1085 -4 -1131 0 -15 36 -17 45 -3 8 13 7 759 -1 823 -6 45 -5 47 17 47 13 -1 46 -7 73 -14 l48 -13 -1 -421 c-1 -232 1 -422 6 -423 16 -1 49 -8 128 -24 44 -9 109 -22 145 -29 36 -8 99 -22 140 -31 75 -17 200 -41 273 -52 53 -7 72 13 21 23 -22 3 -46 12 -54 19 -8 7 -46 20 -85 29 -38 9 -90 23 -115 31 -25 7 -81 23 -125 35 -44 11 -89 26 -100 32 -11 6 -45 17 -75 23 -47 9 -55 14 -55 33 0 13 -7 27 -15 32 -13 8 -15 59 -15 355 l0 347 -36 32 c-20 19 -39 41 -42 50 -4 9 -15 19 -24 23 -10 3 -30 19 -45 35 -25 28 -34 68 -37 171 -1 38 -28 72 -73 93 -22 10 -38 24 -38 34 0 11 -15 21 -49 30 l-50 13 -6 51 c-4 28 -15 60 -25 71 -9 11 -20 40 -24 65 -11 73 -44 125 -103 162 -30 18 -72 48 -94 66 -23 17 -44 32 -49 32 -4 0 -10 44 -14 98 -8 134 -11 904 -2 922 13 30 -54 112 -121 149 -43 23 -63 41 -63 53 0 11 -4 17 -9 13 -17 -10 -91 7 -91 21 0 8 -6 14 -14 14 -7 0 -25 9 -40 21 -16 13 -33 18 -46 14 -14 -4 -20 -2 -20 9 0 8 -13 17 -32 21 -18 4 -40 13 -48 20 -8 7 -28 15 -45 18 -16 3 -48 12 -70 21 -39 15 -98 19 -122 9z"/>
    <path d="M6594 11096 c-18 -8 -35 -19 -38 -25 -4 -6 -17 -11 -29 -11 -20 0 -88 -64 -122 -117 -10 -14 -25 -23 -41 -23 -32 0 -95 -44 -120 -85 -49 -79 -47 -71 -49 -290 -2 -262 -8 -287 -85 -356 -30 -27 -68 -60 -83 -74 -16 -14 -34 -25 -41 -25 -12 0 -138 -132 -181 -190 -11 -15 -28 -35 -38 -45 -15 -14 -17 -26 -11 -59 4 -22 6 -72 4 -111 -4 -77 -4 -117 -1 -185 2 -58 -3 -110 -14 -135 -15 -36 -59 -74 -85 -75 -14 0 -33 -8 -42 -17 -9 -10 -22 -22 -27 -28 -39 -37 -66 -84 -72 -124 -14 -88 -43 -181 -56 -181 -18 0 -79 -56 -104 -97 -24 -39 -26 -77 -32 -518 -2 -159 -5 -195 -20 -222 -10 -18 -24 -33 -32 -33 -8 0 -29 -6 -47 -14 -63 -26 -103 -39 -128 -41 -14 -1 -42 -9 -62 -18 -21 -10 -60 -17 -88 -17 -38 0 -72 -10 -133 -38 -45 -22 -97 -45 -114 -52 -49 -19 -41 -33 15 -27 64 8 179 26 222 37 19 4 71 16 115 25 44 9 98 21 120 27 22 5 65 13 95 18 51 7 90 15 133 27 17 4 18 30 17 416 0 227 0 417 0 423 0 7 16 15 35 18 19 3 50 9 68 12 l32 6 0 -439 0 -438 25 0 25 0 -1 275 c0 151 -2 414 -3 584 l-3 308 78 39 c82 41 104 47 104 27 0 -7 0 -286 0 -620 0 -403 3 -609 10 -613 22 -13 51 10 220 179 95 96 178 172 182 170 4 -3 8 -31 8 -63 l0 -58 -108 -105 c-60 -57 -106 -110 -104 -116 10 -31 51 -9 121 63 40 41 77 75 83 75 6 0 8 -30 6 -72 -3 -67 -1 -73 17 -73 20 0 20 6 17 1108 -2 696 1 1107 7 1107 5 0 27 -17 49 -37 44 -42 67 -59 100 -73 l22 -10 0 -1045 0 -1045 24 -6 c14 -3 35 -3 47 1 l22 7 -5 1475 -6 1474 26 16 c15 10 39 30 54 46 14 16 34 27 43 25 14 -3 16 -123 15 -1438 0 -789 -3 -1472 -7 -1517 l-6 -82 36 -6 c20 -4 40 -4 46 0 12 7 14 2956 3 3055 -7 54 -7 55 -42 57 -19 2 -49 -4 -66 -11z m-182 -583 c-2 -351 -7 -401 -31 -366 -3 5 -22 20 -41 33 -62 41 -60 30 -60 331 l0 276 34 24 c18 12 42 33 52 45 11 13 26 23 34 24 13 0 15 -46 12 -367z m-217 -353 c4 -6 4 -34 0 -62 -7 -50 -11 -55 -166 -211 -88 -88 -159 -164 -159 -168 0 -5 -12 -9 -26 -9 -22 0 -25 3 -20 23 3 12 6 36 6 54 0 27 22 54 173 206 94 96 175 176 179 176 4 1 10 -4 13 -9z m-5 -252 l0 -62 -167 -171 c-93 -93 -174 -171 -180 -173 -10 -3 -13 15 -13 66 l0 70 63 55 c34 31 112 105 172 166 61 60 113 110 118 110 4 1 7 -27 7 -61z m0 -200 l0 -63 -170 -172 c-94 -95 -175 -173 -180 -173 -6 0 -10 29 -10 65 l0 66 67 62 c36 34 116 110 177 169 61 59 112 108 114 108 1 0 2 -28 2 -62z m0 -204 l0 -66 -167 -169 c-92 -93 -171 -169 -175 -169 -4 0 -8 30 -8 66 l0 65 173 169 c94 93 173 169 175 170 1 0 2 -30 2 -66z m-162 -434 c-90 -92 -169 -168 -175 -169 -9 -1 -13 18 -13 62 l0 64 173 169 172 169 3 -64 3 -64 -163 -167z m162 26 l0 -64 -169 -171 c-93 -94 -172 -171 -175 -171 -3 0 -6 30 -6 67 l0 67 173 168 c94 92 173 168 175 168 1 0 2 -29 2 -64z m1 -212 l-3 -58 -162 -167 c-88 -91 -167 -167 -173 -168 -9 -1 -13 17 -13 62 l0 62 172 171 c95 95 175 168 178 164 3 -4 3 -34 1 -66z m0 -206 l-6 -57 -167 -170 c-92 -94 -170 -171 -173 -171 -3 0 -5 30 -5 68 l-1 67 173 167 c95 91 176 163 179 160 3 -4 3 -33 0 -64z m-1 -197 l0 -59 -168 -171 c-93 -94 -172 -168 -175 -164 -4 3 -7 33 -7 65 l0 58 168 165 c92 90 170 165 175 165 4 0 7 -26 7 -59z"/>
    <path d="M6820 10706 c0 -69 7 -80 55 -92 17 -3 42 -14 56 -22 44 -25 58 -11 55 52 -3 56 -17 86 -42 86 -8 0 -31 9 -51 20 -65 34 -73 29 -73 -44z"/>
    <path d="M7057 10608 c6 -68 16 -88 43 -88 9 0 39 -11 65 -25 26 -14 49 -24 52 -21 2 2 5 32 6 67 l2 64 -40 19 c-22 10 -53 25 -68 32 -16 8 -37 14 -48 14 -17 0 -18 -6 -12 -62z"/>
    <path d="M6827 10563 c-4 -3 -7 -33 -7 -65 l0 -59 48 -19 c26 -11 60 -27 76 -36 37 -21 46 -7 39 60 -7 69 -9 76 -32 76 -10 0 -39 11 -62 25 -48 27 -52 28 -62 18z"/>
    <path d="M7067 10463 c-4 -3 -7 -33 -7 -65 0 -58 0 -58 38 -75 20 -8 53 -24 73 -34 48 -25 57 -12 50 66 -6 58 -7 60 -41 70 -19 6 -49 18 -67 28 -36 19 -37 19 -46 10z"/>
    <path d="M6820 10307 c0 -64 11 -87 40 -87 9 0 36 -9 59 -21 59 -28 68 -22 66 46 -2 55 -4 59 -36 76 -19 10 -41 18 -50 19 -9 0 -22 7 -29 15 -7 8 -21 15 -31 15 -17 0 -19 -8 -19 -63z"/>
    <path d="M7060 10205 l0 -65 38 -16 c62 -26 76 -33 94 -46 27 -20 35 0 29 71 -5 58 -8 65 -31 71 -14 4 -45 17 -69 29 -25 11 -48 21 -53 21 -4 0 -8 -29 -8 -65z"/>
    <path d="M6827 10164 c-4 -4 -7 -31 -7 -60 0 -52 16 -84 43 -84 7 0 29 -9 50 -20 39 -21 63 -25 70 -12 2 4 1 33 -2 65 l-6 58 -60 25 c-33 14 -65 27 -71 30 -5 2 -13 1 -17 -2z"/>
    <path d="M7059 10063 c-1 -5 0 -33 1 -63 2 -60 13 -80 40 -80 10 0 38 -11 61 -25 24 -14 47 -25 52 -25 4 0 7 31 7 69 l0 69 -47 18 c-27 10 -55 23 -64 31 -17 14 -48 18 -50 6z"/>
    <path d="M6820 9905 c0 -70 11 -85 72 -100 15 -4 32 -13 39 -21 6 -8 23 -14 37 -14 23 0 24 2 18 38 -3 20 -6 52 -6 70 0 22 -6 34 -17 38 -10 4 -42 17 -71 30 -29 13 -57 24 -62 24 -6 0 -10 -29 -10 -65z"/>
    <path d="M7059 9856 c-2 -3 -2 -31 1 -63 4 -49 9 -59 30 -69 137 -65 140 -64 131 31 -6 58 -7 60 -41 70 -19 6 -45 16 -57 23 -21 12 -56 16 -64 8z"/>
    <path d="M7316 9431 c-3 -4 -6 -327 -6 -717 l-1 -709 36 0 36 0 0 709 c-1 389 -4 712 -7 717 -7 12 -51 12 -58 0z"/>
    <path d="M7183 9403 c-15 -6 -17 -91 -3 -113 7 -11 10 -5 10 23 0 20 5 37 10 37 7 0 10 -212 10 -615 0 -403 -3 -615 -10 -615 -5 0 -10 12 -11 28 -1 15 -7 -9 -14 -53 -6 -44 -10 -83 -8 -87 2 -5 22 -8 44 -8 l39 0 0 705 0 705 -27 -1 c-16 0 -34 -3 -40 -6z"/>
    <path d="M7082 9387 l-22 -13 -4 -664 c-2 -366 -5 -674 -7 -685 -3 -17 2 -20 39 -23 l42 -3 0 685 c0 376 -3 691 -6 700 -7 19 -12 19 -42 3z"/>
    <path d="M4820 7813 c-52 -2 -106 -5 -119 -8 -22 -6 -22 -7 -6 -25 9 -10 29 -20 44 -22 37 -4 32 -22 -7 -26 -18 -2 -36 -10 -39 -18 -3 -8 -16 -14 -29 -14 -31 0 -89 -58 -104 -105 -16 -50 -18 -115 -19 -895 -2 -742 -1 -752 52 -822 33 -43 52 -48 211 -54 113 -5 120 -4 156 20 37 24 71 80 84 138 3 15 7 142 7 282 1 217 4 257 17 268 16 14 429 28 527 18 78 -8 79 -13 83 -345 l3 -280 56 -52 c53 -51 93 -67 108 -43 4 6 67 10 155 10 85 0 161 5 177 11 15 6 52 12 81 14 50 2 71 9 61 20 -3 2 -132 7 -288 11 l-284 7 7 146 c4 111 9 511 6 586 0 6 -140 10 -400 10 -258 0 -401 -4 -403 -10 -1 -5 0 -170 4 -365 3 -195 4 -358 2 -362 -2 -5 -80 -8 -172 -8 -194 0 -182 -7 -170 105 12 105 11 1482 -1 1545 -16 83 -18 82 176 83 l169 0 -1 -54 c0 -30 -2 -189 -4 -354 l-3 -300 403 0 403 0 -2 255 c-1 140 -4 296 -7 347 -4 68 -2 93 8 99 7 5 68 7 135 5 87 -2 148 2 213 14 83 17 89 19 75 35 -8 9 -15 21 -15 27 0 14 77 24 106 13 35 -14 257 -7 261 7 5 13 61 7 77 -8 18 -16 122 -11 137 7 9 12 22 14 48 9 69 -12 142 -14 168 -4 17 6 30 6 38 -1 7 -5 26 -7 42 -4 25 5 31 2 36 -16 4 -16 0 -23 -19 -30 -13 -5 -24 -13 -24 -18 0 -16 263 -34 465 -31 119 2 209 -1 213 -7 8 -8 -1 -704 -10 -764 -5 -41 27 -37 60 9 29 40 101 124 212 245 30 34 73 81 95 105 22 24 45 49 50 55 76 82 154 168 215 236 118 132 103 124 230 121 116 -3 263 15 254 31 -10 15 -56 31 -103 35 -25 2 -50 8 -56 13 -7 6 -33 13 -59 16 -65 9 -45 24 40 30 38 2 89 12 113 20 39 15 42 18 25 28 -14 8 -547 11 -1944 12 -1059 0 -1968 -1 -2020 -3z m500 -78 c275 -5 360 -11 403 -27 32 -12 34 -21 8 -47 -52 -52 -55 -68 -53 -337 3 -240 2 -252 -18 -277 -16 -20 -30 -26 -58 -26 -259 1 -392 2 -417 4 -16 1 -46 3 -66 3 -62 3 -67 26 -71 313 -2 179 -6 250 -16 261 -7 8 -11 26 -10 39 2 18 -2 25 -18 27 -12 2 -27 14 -35 29 -12 22 -11 27 6 39 13 10 33 13 55 9 19 -3 150 -7 290 -10z m3063 7 c21 -3 35 -7 32 -10 -9 -9 17 -32 37 -32 27 0 14 -16 -19 -25 -42 -10 -129 -71 -155 -108 -12 -17 -27 -34 -32 -36 -17 -7 -90 -92 -101 -117 -5 -14 -21 -30 -35 -37 -14 -7 -38 -33 -55 -58 -35 -53 -82 -99 -101 -99 -7 0 -27 -13 -44 -30 -35 -34 -42 -36 -74 -15 -22 15 -23 19 -25 216 -3 224 -2 224 -74 292 -22 20 -37 40 -33 44 3 4 67 8 142 9 75 2 139 6 143 9 6 7 336 5 394 -3z m162 -7 c0 -12 -40 -19 -61 -11 -9 3 -12 11 -9 16 8 14 70 9 70 -5z"/>
    <path d="M8824 7596 c-17 -17 -53 -52 -80 -77 -45 -42 -223 -229 -429 -449 -44 -48 -93 -95 -108 -106 -47 -32 -45 -55 12 -127 28 -36 51 -69 51 -75 0 -6 6 -15 13 -19 7 -4 40 -48 73 -98 33 -49 85 -125 115 -168 30 -43 61 -89 69 -102 19 -31 73 -109 80 -115 3 -3 10 -13 15 -22 42 -71 215 -303 236 -316 14 -9 16 -5 14 29 -1 22 -9 45 -18 52 -8 7 -30 42 -47 79 -18 37 -48 84 -66 104 -19 20 -34 39 -34 42 0 15 -55 118 -66 125 -8 4 -14 13 -14 20 0 7 -25 43 -55 81 -30 38 -55 75 -55 82 0 8 -4 14 -9 14 -5 0 -11 13 -14 29 -4 16 -14 32 -24 35 -30 10 -57 54 -43 71 8 10 8 15 -1 20 -6 4 -15 1 -20 -6 -6 -10 -10 -9 -15 6 -11 28 -72 122 -84 130 -5 3 -10 17 -10 30 0 13 -5 27 -11 30 -7 5 -4 14 8 29 10 11 25 33 33 49 7 15 17 27 21 27 13 0 58 48 73 79 8 15 31 40 51 55 20 15 43 45 51 67 10 23 30 47 49 59 18 11 50 42 71 68 50 62 64 77 98 110 35 33 116 157 116 177 0 21 -11 17 -46 -19z"/>
    <path d="M6106 7579 c-13 -20 -15 -115 -16 -808 0 -470 4 -792 9 -801 11 -16 181 -25 181 -9 0 10 -65 39 -90 39 -12 0 -17 8 -17 28 -1 67 0 1472 1 1517 1 47 -1 50 -26 53 -18 2 -31 -4 -42 -19z"/>
    <path d="M7040 7576 c0 -8 26 -27 58 -42 31 -15 66 -36 77 -48 12 -12 42 -40 68 -64 31 -28 47 -51 47 -66 0 -13 7 -29 15 -36 23 -19 37 -83 25 -115 -8 -20 -7 -31 2 -42 9 -11 12 -119 13 -421 1 -382 0 -411 -20 -477 -15 -51 -30 -80 -57 -107 -21 -21 -38 -41 -38 -44 0 -8 -77 -77 -132 -119 -27 -20 -48 -40 -48 -45 0 -13 37 -13 45 -1 3 6 26 13 52 17 25 4 55 12 67 18 50 27 102 65 121 88 35 43 65 87 65 96 0 6 7 23 15 38 13 25 15 108 15 556 0 514 0 527 -22 582 -33 88 -124 179 -213 213 -23 9 -133 33 -152 33 -2 0 -3 -6 -3 -14z"/>
    <path d="M6585 7389 c-16 -5 -42 -6 -57 -3 -55 11 -152 -39 -189 -100 -14 -22 -19 -47 -18 -91 0 -33 -1 -225 -4 -426 -5 -366 1 -472 33 -547 13 -29 83 -59 143 -60 26 -1 56 -6 67 -12 21 -11 125 -7 270 11 122 15 128 17 152 44 12 14 26 25 31 25 21 0 155 131 162 157 3 15 14 45 24 68 32 72 34 79 45 170 24 192 -19 496 -72 516 -12 5 -22 16 -22 24 0 14 -41 74 -79 114 -27 29 -175 91 -218 91 -23 0 -52 4 -65 9 -37 14 -170 21 -203 10z m110 -83 c239 -9 354 -70 431 -227 40 -80 58 -175 58 -304 1 -194 -43 -341 -127 -424 -21 -21 -62 -50 -90 -64 -113 -55 -123 -56 -339 -57 -112 0 -207 -1 -213 0 -7 0 -9 185 -8 538 1 295 2 539 2 542 1 5 103 4 286 -4z"/>
    <path d="M7872 6589 c-42 -46 -95 -101 -116 -122 l-39 -39 6 -264 5 -263 -242 0 c-253 1 -433 -8 -442 -22 -5 -8 46 -25 109 -35 20 -4 40 -11 43 -15 3 -5 36 -9 74 -9 38 0 81 -5 94 -12 22 -9 29 -8 45 6 16 14 30 16 73 11 111 -13 177 -13 188 0 6 7 19 11 30 8 14 -4 22 2 29 20 6 15 24 33 41 42 21 11 30 23 30 40 0 14 7 43 17 66 11 30 13 46 6 58 -6 9 -11 76 -11 150 -1 137 4 160 47 214 8 9 19 27 25 39 14 28 39 34 77 18 20 -9 29 -19 29 -36 0 -14 6 -24 14 -24 8 0 29 -22 47 -50 18 -27 36 -50 41 -50 5 0 7 -12 6 -27 -3 -24 0 -28 20 -26 14 2 22 -3 22 -13 0 -8 30 -54 67 -100 37 -47 75 -104 84 -127 9 -23 24 -43 32 -45 8 -2 20 -16 26 -33 5 -16 14 -29 18 -29 4 0 27 -18 51 -40 28 -26 48 -37 59 -33 9 4 21 -1 29 -12 12 -15 16 -16 30 -4 12 10 43 13 118 11 100 -3 186 13 193 35 6 16 -60 23 -223 23 l-152 0 -108 163 c-60 89 -112 167 -116 172 -49 62 -238 345 -262 392 -9 17 -20 35 -26 38 -6 4 -45 -31 -88 -76z"/>
  </g>
</svg>
