<?xml version="1.0" standalone="no"?>
<!DOCTYPE svg PUBLIC "-//W3C//DTD SVG 20010904//EN"
 "http://www.w3.org/TR/2001/REC-SVG-20010904/DTD/svg10.dtd">
<svg version="1.0" xmlns="http://www.w3.org/2000/svg"
 width="1350.000000pt" height="1347.000000pt" viewBox="0 0 1350.000000 1347.000000"
 preserveAspectRatio="xMidYMid meet">
<metadata>
Created by potrace 1.10, written by Peter Selinger 2001-2011
</metadata>
<g transform="translate(0.000000,1347.000000) scale(0.100000,-0.100000)"
fill="#ffd700" stroke="none">
<path d="M5 7495 c0 -3289 1 -4636 2 -2993 2 1642 2 4333 0 5980 -1 1646 -2
302 -2 -2987z"/>
<path d="M6703 11153 c-18 -7 -16 -33 2 -33 9 0 32 -11 53 -23 33 -21 140 -74
232 -114 19 -9 42 -20 50 -25 8 -4 22 -11 30 -14 8 -3 29 -12 45 -19 17 -7 46
-20 65 -28 76 -33 116 -50 138 -62 l24 -12 -2 -579 c0 -318 -4 -582 -8 -585
-4 -4 -25 -10 -47 -13 -141 -20 -195 -29 -235 -41 l-45 -13 -1 -59 c0 -39 -6
-68 -17 -83 -16 -22 -17 -85 -17 -737 0 -703 2 -745 31 -716 6 6 10 277 9 704
0 569 2 698 13 713 10 13 33 21 83 26 77 9 221 35 273 50 19 5 38 7 42 4 5 -3
9 -340 9 -749 0 -489 3 -746 10 -750 6 -3 19 -4 29 0 18 5 19 28 16 750 -3
689 -2 746 13 755 16 9 15 11 -3 26 -23 18 -109 13 -205 -12 -30 -8 -67 -14
-83 -14 -16 0 -53 -7 -83 -16 -64 -18 -84 -14 -84 20 0 40 11 56 37 56 13 0
32 4 42 9 9 5 46 14 82 19 96 15 213 42 223 53 19 18 48 8 106 -36 32 -25 63
-45 69 -45 15 0 31 -35 31 -69 0 -37 -24 -41 -63 -11 -14 11 -30 20 -36 20
-15 0 -14 -26 2 -34 6 -3 26 -15 42 -26 17 -11 37 -23 46 -26 29 -10 36 -45
28 -139 -4 -49 -8 -357 -8 -682 l-1 -593 25 -6 c14 -4 28 -4 31 -1 3 3 5 284
4 626 -1 691 -6 640 68 602 20 -11 55 -28 77 -38 34 -16 40 -24 39 -49 -2 -23
-5 -1085 -4 -1131 0 -15 36 -17 45 -3 8 13 7 759 -1 823 -6 45 -5 47 17 47 13
-1 46 -7 73 -14 l48 -13 -1 -421 c-1 -232 1 -422 6 -423 16 -1 49 -8 128 -24
44 -9 109 -22 145 -29 36 -8 99 -22 140 -31 75 -17 200 -41 273 -52 53 -7 72
13 21 23 -22 3 -46 12 -54 19 -8 7 -46 20 -85 29 -38 9 -90 23 -115 31 -25 7
-81 23 -125 35 -44 11 -89 26 -100 32 -11 6 -45 17 -75 23 -47 9 -55 14 -55
33 0 13 -7 27 -15 32 -13 8 -15 59 -15 355 l0 347 -36 32 c-20 19 -39 41 -42
50 -4 9 -15 19 -24 23 -10 3 -30 19 -45 35 -25 28 -34 68 -37 171 -1 38 -28
72 -73 93 -22 10 -38 24 -38 34 0 11 -15 21 -49 30 l-50 13 -6 51 c-4 28 -15
60 -25 71 -9 11 -20 40 -24 65 -11 73 -44 125 -103 162 -30 18 -72 48 -94 66
-23 17 -44 32 -49 32 -4 0 -10 44 -14 98 -8 134 -11 904 -2 922 13 30 -54 112
-121 149 -43 23 -63 41 -63 53 0 11 -4 17 -9 13 -17 -10 -91 7 -91 21 0 8 -6
14 -14 14 -7 0 -25 9 -40 21 -16 13 -33 18 -46 14 -14 -4 -20 -2 -20 9 0 8
-13 17 -32 21 -18 4 -40 13 -48 20 -8 7 -28 15 -45 18 -16 3 -48 12 -70 21
-39 15 -98 19 -122 9z"/>
<path d="M6594 11096 c-18 -8 -35 -19 -38 -25 -4 -6 -17 -11 -29 -11 -20 0
-88 -64 -122 -117 -10 -14 -25 -23 -41 -23 -32 0 -95 -44 -120 -85 -49 -79
-47 -71 -49 -290 -2 -262 -8 -287 -85 -356 -30 -27 -68 -60 -83 -74 -16 -14
-34 -25 -41 -25 -12 0 -138 -132 -181 -190 -11 -15 -28 -35 -38 -45 -15 -14
-17 -26 -11 -59 4 -22 6 -72 4 -111 -4 -77 -4 -117 -1 -185 2 -58 -3 -110 -14
-135 -15 -36 -59 -74 -85 -75 -14 0 -33 -8 -42 -17 -9 -10 -22 -22 -27 -28
-39 -37 -66 -84 -72 -124 -14 -88 -43 -181 -56 -181 -18 0 -79 -56 -104 -97
-24 -39 -26 -77 -32 -518 -2 -159 -5 -195 -20 -222 -10 -18 -24 -33 -32 -33
-8 0 -29 -6 -47 -14 -63 -26 -103 -39 -128 -41 -14 -1 -42 -9 -62 -18 -21 -10
-60 -17 -88 -17 -38 0 -72 -10 -133 -38 -45 -22 -97 -45 -114 -52 -49 -19 -41
-33 15 -27 64 8 179 26 222 37 19 4 71 16 115 25 44 9 98 21 120 27 22 5 65
13 95 18 51 7 90 15 133 27 17 4 18 30 17 416 0 227 0 417 0 423 0 7 16 15 35
18 19 3 50 9 68 12 l32 6 0 -439 0 -438 25 0 25 0 -1 275 c0 151 -2 414 -3
584 l-3 308 78 39 c82 41 104 47 104 27 0 -7 0 -286 0 -620 0 -403 3 -609 10
-613 22 -13 51 10 220 179 95 96 178 172 182 170 4 -3 8 -31 8 -63 l0 -58
-108 -105 c-60 -57 -106 -110 -104 -116 10 -31 51 -9 121 63 40 41 77 75 83
75 6 0 8 -30 6 -72 -3 -67 -1 -73 17 -73 20 0 20 6 17 1108 -2 696 1 1107 7
1107 5 0 27 -17 49 -37 44 -42 67 -59 100 -73 l22 -10 0 -1045 0 -1045 24 -6
c14 -3 35 -3 47 1 l22 7 -5 1475 -6 1474 26 16 c15 10 39 30 54 46 14 16 34
27 43 25 14 -3 16 -123 15 -1438 0 -789 -3 -1472 -7 -1517 l-6 -82 36 -6 c20
-4 40 -4 46 0 12 7 14 2956 3 3055 -7 54 -7 55 -42 57 -19 2 -49 -4 -66 -11z
m-182 -583 c-2 -351 -7 -401 -31 -366 -3 5 -22 20 -41 33 -62 41 -60 30 -60
331 l0 276 34 24 c18 12 42 33 52 45 11 13 26 23 34 24 13 0 15 -46 12 -367z
m-217 -353 c4 -6 4 -34 0 -62 -7 -50 -11 -55 -166 -211 -88 -88 -159 -164
-159 -168 0 -5 -12 -9 -26 -9 -22 0 -25 3 -20 23 3 12 6 36 6 54 0 27 22 54
173 206 94 96 175 176 179 176 4 1 10 -4 13 -9z m-5 -252 l0 -62 -167 -171
c-93 -93 -174 -171 -180 -173 -10 -3 -13 15 -13 66 l0 70 63 55 c34 31 112
105 172 166 61 60 113 110 118 110 4 1 7 -27 7 -61z m0 -200 l0 -63 -170 -172
c-94 -95 -175 -173 -180 -173 -6 0 -10 29 -10 65 l0 66 67 62 c36 34 116 110
177 169 61 59 112 108 114 108 1 0 2 -28 2 -62z m0 -204 l0 -66 -167 -169
c-92 -93 -171 -169 -175 -169 -4 0 -8 30 -8 66 l0 65 173 169 c94 93 173 169
175 170 1 0 2 -30 2 -66z m-162 -434 c-90 -92 -169 -168 -175 -169 -9 -1 -13
18 -13 62 l0 64 173 169 172 169 3 -64 3 -64 -163 -167z m162 26 l0 -64 -169
-171 c-93 -94 -172 -171 -175 -171 -3 0 -6 30 -6 67 l0 67 173 168 c94 92 173
168 175 168 1 0 2 -29 2 -64z m1 -212 l-3 -58 -162 -167 c-88 -91 -167 -167
-173 -168 -9 -1 -13 17 -13 62 l0 62 172 171 c95 95 175 168 178 164 3 -4 3
-34 1 -66z m0 -206 l-6 -57 -167 -170 c-92 -94 -170 -171 -173 -171 -3 0 -5
30 -5 68 l-1 67 173 167 c95 91 176 163 179 160 3 -4 3 -33 0 -64z m-1 -197
l0 -59 -168 -171 c-93 -94 -172 -168 -175 -164 -4 3 -7 33 -7 65 l0 58 168
165 c92 90 170 165 175 165 4 0 7 -26 7 -59z"/>
<path d="M6820 10706 c0 -69 7 -80 55 -92 17 -3 42 -14 56 -22 44 -25 58 -11
55 52 -3 56 -17 86 -42 86 -8 0 -31 9 -51 20 -65 34 -73 29 -73 -44z"/>
<path d="M7057 10608 c6 -68 16 -88 43 -88 9 0 39 -11 65 -25 26 -14 49 -24
52 -21 2 2 5 32 6 67 l2 64 -40 19 c-22 10 -53 25 -68 32 -16 8 -37 14 -48 14
-17 0 -18 -6 -12 -62z"/>
<path d="M6827 10563 c-4 -3 -7 -33 -7 -65 l0 -59 48 -19 c26 -11 60 -27 76
-36 37 -21 46 -7 39 60 -7 69 -9 76 -32 76 -10 0 -39 11 -62 25 -48 27 -52 28
-62 18z"/>
<path d="M7067 10463 c-4 -3 -7 -33 -7 -65 0 -58 0 -58 38 -75 20 -8 53 -24
73 -34 48 -25 57 -12 50 66 -6 58 -7 60 -41 70 -19 6 -49 18 -67 28 -36 19
-37 19 -46 10z"/>
<path d="M6820 10307 c0 -64 11 -87 40 -87 9 0 36 -9 59 -21 59 -28 68 -22 66
46 -2 55 -4 59 -36 76 -19 10 -41 18 -50 19 -9 0 -22 7 -29 15 -7 8 -21 15
-31 15 -17 0 -19 -8 -19 -63z"/>
<path d="M7060 10205 l0 -65 38 -16 c62 -26 76 -33 94 -46 27 -20 35 0 29 71
-5 58 -8 65 -31 71 -14 4 -45 17 -69 29 -25 11 -48 21 -53 21 -4 0 -8 -29 -8
-65z"/>
<path d="M6827 10164 c-4 -4 -7 -31 -7 -60 0 -52 16 -84 43 -84 7 0 29 -9 50
-20 39 -21 63 -25 70 -12 2 4 1 33 -2 65 l-6 58 -60 25 c-33 14 -65 27 -71 30
-5 2 -13 1 -17 -2z"/>
<path d="M7059 10063 c-1 -5 0 -33 1 -63 2 -60 13 -80 40 -80 10 0 38 -11 61
-25 24 -14 47 -25 52 -25 4 0 7 31 7 69 l0 69 -47 18 c-27 10 -55 23 -64 31
-17 14 -48 18 -50 6z"/>
<path d="M6820 9905 c0 -70 11 -85 72 -100 15 -4 32 -13 39 -21 6 -8 23 -14
37 -14 23 0 24 2 18 38 -3 20 -6 52 -6 70 0 22 -6 34 -17 38 -10 4 -42 17 -71
30 -29 13 -57 24 -62 24 -6 0 -10 -29 -10 -65z"/>
<path d="M7059 9856 c-2 -3 -2 -31 1 -63 4 -49 9 -59 30 -69 137 -65 140 -64
131 31 -6 58 -7 60 -41 70 -19 6 -45 16 -57 23 -21 12 -56 16 -64 8z"/>
<path d="M7316 9431 c-3 -4 -6 -327 -6 -717 l-1 -709 36 0 36 0 0 709 c-1 389
-4 712 -7 717 -7 12 -51 12 -58 0z"/>
<path d="M7183 9403 c-15 -6 -17 -91 -3 -113 7 -11 10 -5 10 23 0 20 5 37 10
37 7 0 10 -212 10 -615 0 -403 -3 -615 -10 -615 -5 0 -10 12 -11 28 -1 15 -7
-9 -14 -53 -6 -44 -10 -83 -8 -87 2 -5 22 -8 44 -8 l39 0 0 705 0 705 -27 -1
c-16 0 -34 -3 -40 -6z"/>
<path d="M7082 9387 l-22 -13 -4 -664 c-2 -366 -5 -674 -7 -685 -3 -17 2 -20
39 -23 l42 -3 0 685 c0 376 -3 691 -6 700 -7 19 -12 19 -42 3z"/>
<path d="M4820 7813 c-52 -2 -106 -5 -119 -8 -22 -6 -22 -7 -6 -25 9 -10 29
-20 44 -22 37 -4 32 -22 -7 -26 -18 -2 -36 -10 -39 -18 -3 -8 -16 -14 -29 -14
-31 0 -89 -58 -104 -105 -16 -50 -18 -115 -19 -895 -2 -742 -1 -752 52 -822
33 -43 52 -48 211 -54 113 -5 120 -4 156 20 37 24 71 80 84 138 3 15 7 142 7
282 1 217 4 257 17 268 16 14 429 28 527 18 78 -8 79 -13 83 -345 l3 -280 56
-52 c53 -51 93 -67 108 -43 4 6 67 10 155 10 85 0 161 5 177 11 15 6 52 12 81
14 50 2 71 9 61 20 -3 2 -132 7 -288 11 l-284 7 7 146 c4 111 9 511 6 586 0 6
-140 10 -400 10 -258 0 -401 -4 -403 -10 -1 -5 0 -170 4 -365 3 -195 4 -358 2
-362 -2 -5 -80 -8 -172 -8 -194 0 -182 -7 -170 105 12 105 11 1482 -1 1545
-16 83 -18 82 176 83 l169 0 -1 -54 c0 -30 -2 -189 -4 -354 l-3 -300 403 0
403 0 -2 255 c-1 140 -4 296 -7 347 -4 68 -2 93 8 99 7 5 68 7 135 5 87 -2
148 2 213 14 83 17 89 19 75 35 -8 9 -15 21 -15 27 0 14 77 24 106 13 35 -14
257 -7 261 7 5 13 61 7 77 -8 18 -16 122 -11 137 7 9 12 22 14 48 9 69 -12
142 -14 168 -4 17 6 30 6 38 -1 7 -5 26 -7 42 -4 25 5 31 2 36 -16 4 -16 0
-23 -19 -30 -13 -5 -24 -13 -24 -18 0 -16 263 -34 465 -31 119 2 209 -1 213
-7 8 -8 -1 -704 -10 -764 -5 -41 27 -37 60 9 29 40 101 124 212 245 30 34 73
81 95 105 22 24 45 49 50 55 76 82 154 168 215 236 118 132 103 124 230 121
116 -3 263 15 254 31 -10 15 -56 31 -103 35 -25 2 -50 8 -56 13 -7 6 -33 13
-59 16 -65 9 -45 24 40 30 38 2 89 12 113 20 39 15 42 18 25 28 -14 8 -547 11
-1944 12 -1059 0 -1968 -1 -2020 -3z m500 -78 c275 -5 360 -11 403 -27 32 -12
34 -21 8 -47 -52 -52 -55 -68 -53 -337 3 -240 2 -252 -18 -277 -16 -20 -30
-26 -58 -26 -259 1 -392 2 -417 4 -16 1 -46 3 -66 3 -62 3 -67 26 -71 313 -2
179 -6 250 -16 261 -7 8 -11 26 -10 39 2 18 -2 25 -18 27 -12 2 -27 14 -35 29
-12 22 -11 27 6 39 13 10 33 13 55 9 19 -3 150 -7 290 -10z m3063 7 c21 -3 35
-7 32 -10 -9 -9 17 -32 37 -32 27 0 14 -16 -19 -25 -42 -10 -129 -71 -155
-108 -12 -17 -27 -34 -32 -36 -17 -7 -90 -92 -101 -117 -5 -14 -21 -30 -35
-37 -14 -7 -38 -33 -55 -58 -35 -53 -82 -99 -101 -99 -7 0 -27 -13 -44 -30
-35 -34 -42 -36 -74 -15 -22 15 -23 19 -25 216 -3 224 -2 224 -74 292 -22 20
-37 40 -33 44 3 4 67 8 142 9 75 2 139 6 143 9 6 7 336 5 394 -3z m162 -7 c0
-12 -40 -19 -61 -11 -9 3 -12 11 -9 16 8 14 70 9 70 -5z"/>
<path d="M8824 7596 c-17 -17 -53 -52 -80 -77 -45 -42 -223 -229 -429 -449
-44 -48 -93 -95 -108 -106 -47 -32 -45 -55 12 -127 28 -36 51 -69 51 -75 0 -6
6 -15 13 -19 7 -4 40 -48 73 -98 33 -49 85 -125 115 -168 30 -43 61 -89 69
-102 19 -31 73 -109 80 -115 3 -3 10 -13 15 -22 42 -71 215 -303 236 -316 14
-9 16 -5 14 29 -1 22 -9 45 -18 52 -8 7 -30 42 -47 79 -18 37 -48 84 -66 104
-19 20 -34 39 -34 42 0 15 -55 118 -66 125 -8 4 -14 13 -14 20 0 7 -25 43 -55
81 -30 38 -55 75 -55 82 0 8 -4 14 -9 14 -5 0 -11 13 -14 29 -4 16 -14 32 -24
35 -30 10 -57 54 -43 71 8 10 8 15 -1 20 -6 4 -15 1 -20 -6 -6 -10 -10 -9 -15
6 -11 28 -72 122 -84 130 -5 3 -10 17 -10 30 0 13 -5 27 -11 30 -7 5 -4 14 8
29 10 11 25 33 33 49 7 15 17 27 21 27 13 0 58 48 73 79 8 15 31 40 51 55 20
15 43 45 51 67 10 23 30 47 49 59 18 11 50 42 71 68 50 62 64 77 98 110 35 33
116 157 116 177 0 21 -11 17 -46 -19z"/>
<path d="M6106 7579 c-13 -20 -15 -115 -16 -808 0 -470 4 -792 9 -801 11 -16
181 -25 181 -9 0 10 -65 39 -90 39 -12 0 -17 8 -17 28 -1 67 0 1472 1 1517 1
47 -1 50 -26 53 -18 2 -31 -4 -42 -19z"/>
<path d="M7040 7576 c0 -8 26 -27 58 -42 31 -15 66 -36 77 -48 12 -12 42 -40
68 -64 31 -28 47 -51 47 -66 0 -13 7 -29 15 -36 23 -19 37 -83 25 -115 -8 -20
-7 -31 2 -42 9 -11 12 -119 13 -421 1 -382 0 -411 -20 -477 -15 -51 -30 -80
-57 -107 -21 -21 -38 -41 -38 -44 0 -8 -77 -77 -132 -119 -27 -20 -48 -40 -48
-45 0 -13 37 -13 45 -1 3 6 26 13 52 17 25 4 55 12 67 18 50 27 102 65 121 88
35 43 65 87 65 96 0 6 7 23 15 38 13 25 15 108 15 556 0 514 0 527 -22 582
-33 88 -124 179 -213 213 -23 9 -133 33 -152 33 -2 0 -3 -6 -3 -14z"/>
<path d="M6585 7389 c-16 -5 -42 -6 -57 -3 -55 11 -152 -39 -189 -100 -14 -22
-19 -47 -18 -91 0 -33 -1 -225 -4 -426 -5 -366 1 -472 33 -547 13 -29 83 -59
143 -60 26 -1 56 -6 67 -12 21 -11 125 -7 270 11 122 15 128 17 152 44 12 14
26 25 31 25 21 0 155 131 162 157 3 15 14 45 24 68 32 72 34 79 45 170 24 192
-19 496 -72 516 -12 5 -22 16 -22 24 0 14 -41 74 -79 114 -27 29 -175 91 -218
91 -23 0 -52 4 -65 9 -37 14 -170 21 -203 10z m110 -83 c239 -9 354 -70 431
-227 40 -80 58 -175 58 -304 1 -194 -43 -341 -127 -424 -21 -21 -62 -50 -90
-64 -113 -55 -123 -56 -339 -57 -112 0 -207 -1 -213 0 -7 0 -9 185 -8 538 1
295 2 539 2 542 1 5 103 4 286 -4z"/>
<path d="M7872 6589 c-42 -46 -95 -101 -116 -122 l-39 -39 6 -264 5 -263 -242
0 c-253 1 -433 -8 -442 -22 -5 -8 46 -25 109 -35 20 -4 40 -11 43 -15 3 -5 36
-9 74 -9 38 0 81 -5 94 -12 22 -9 29 -8 45 6 16 14 30 16 73 11 111 -13 177
-13 188 0 6 7 19 11 30 8 14 -4 22 2 29 20 6 15 24 33 41 42 21 11 30 23 30
40 0 14 7 43 17 66 11 30 13 46 6 58 -6 9 -11 76 -11 150 -1 137 4 160 47 214
8 9 19 27 25 39 14 28 39 34 77 18 20 -9 29 -19 29 -36 0 -14 6 -24 14 -24 8
0 29 -22 47 -50 18 -27 36 -50 41 -50 5 0 7 -12 6 -27 -3 -24 0 -28 20 -26 14
2 22 -3 22 -13 0 -8 30 -54 67 -100 37 -47 75 -104 84 -127 9 -23 24 -43 32
-45 8 -2 20 -16 26 -33 5 -16 14 -29 18 -29 4 0 27 -18 51 -40 28 -26 48 -37
59 -33 9 4 21 -1 29 -12 12 -15 16 -16 30 -4 12 10 43 13 118 11 100 -3 186
13 193 35 6 16 -60 23 -223 23 l-152 0 -108 163 c-60 89 -112 167 -116 172
-49 62 -238 345 -262 392 -9 17 -20 35 -26 38 -6 4 -45 -31 -88 -76z"/>
<path d="M830 5420 c-61 -11 -109 -37 -122 -66 -6 -13 -15 -24 -19 -24 -4 0
-16 -24 -26 -52 -16 -48 -18 -91 -18 -433 0 -209 3 -408 7 -442 7 -66 28 -117
53 -126 8 -4 15 -13 15 -22 0 -8 17 -22 38 -31 69 -31 292 -16 292 19 0 16 41
52 55 49 15 -3 40 86 38 138 -2 58 14 120 31 120 26 0 38 -30 41 -104 5 -83
20 -123 69 -174 50 -54 77 -64 184 -64 111 0 145 13 199 72 45 51 83 108 83
125 0 22 21 18 27 -5 3 -10 14 -22 24 -25 10 -4 19 -11 19 -17 0 -15 64 -74
114 -105 66 -42 128 -55 236 -50 105 5 116 9 193 68 29 21 59 39 67 39 9 0 40
-16 70 -35 30 -19 61 -35 69 -35 8 0 22 -6 30 -13 9 -8 47 -22 84 -32 106 -27
325 -11 363 28 4 4 16 7 27 7 11 0 51 27 88 60 37 33 72 60 78 60 6 0 11 9 11
19 0 19 18 31 49 31 9 0 27 -13 39 -30 13 -16 27 -30 33 -30 6 0 19 -10 29
-23 10 -13 37 -32 59 -42 23 -10 41 -22 41 -26 0 -14 53 -37 124 -53 84 -20
192 -20 276 0 36 9 77 18 92 21 15 3 33 11 39 19 6 8 20 14 30 14 19 0 153
127 181 171 25 40 58 146 69 225 8 57 6 87 -7 150 -8 44 -19 84 -24 89 -4 6
-13 27 -20 49 -8 25 -39 65 -92 117 -43 43 -84 79 -90 79 -5 0 -24 10 -41 23
-42 29 -86 44 -178 61 -77 14 -88 14 -194 -6 -104 -19 -249 -101 -324 -182
-39 -42 -70 -35 -120 27 -41 50 -64 65 -176 119 -113 55 -282 61 -403 17 -31
-12 -72 -27 -91 -34 -18 -7 -38 -20 -43 -29 -5 -9 -17 -16 -27 -16 -10 0 -24
-7 -31 -15 -7 -8 -19 -15 -27 -15 -20 0 -93 60 -93 76 0 8 -18 23 -39 34 -43
21 -71 54 -71 82 0 10 -25 43 -56 74 -54 54 -58 56 -98 50 -85 -13 -174 -78
-217 -157 -5 -11 -19 -19 -30 -19 -12 0 -30 -11 -41 -25 -26 -34 -44 -20 -53
43 -4 26 -12 56 -17 66 -14 26 -67 79 -98 98 -35 22 -123 30 -200 18 -60 -8
-68 -13 -108 -57 -23 -26 -50 -56 -59 -66 -18 -19 -24 -41 -26 -102 -1 -22
-10 -51 -19 -64 -16 -23 -18 -24 -36 -8 -14 13 -19 32 -20 81 -1 68 -9 92 -45
128 -12 13 -31 35 -43 49 -31 41 -122 57 -224 39z m205 -286 l0 -188 150 1
150 0 1 179 c1 99 2 184 3 189 0 6 53 10 137 9 l136 -1 0 -508 0 -507 -138 0
-139 0 4 196 3 197 -153 -3 -154 -3 0 -194 0 -194 -135 1 c-74 1 -139 1 -145
2 -7 0 -9 173 -8 503 1 276 2 504 3 507 0 3 64 4 142 4 l143 -1 0 -189z m1083
179 c5 -10 5 -63 1 -118 -4 -55 -5 -103 -1 -107 4 -3 45 -2 92 2 48 5 89 5 95
0 11 -9 12 -191 1 -208 -3 -5 -45 -7 -96 -4 l-90 5 0 -144 c1 -185 4 -191 118
-193 l77 -1 6 -115 c4 -63 5 -117 3 -119 -3 -3 -68 -4 -145 -2 -132 2 -145 4
-192 29 -59 32 -93 71 -119 138 -16 42 -18 73 -17 224 l2 175 -64 1 c-90 1
-89 1 -89 32 0 21 30 59 133 168 72 78 155 167 182 198 52 58 87 71 103 39z
m829 -213 c123 -38 188 -84 245 -173 84 -130 89 -295 13 -444 -57 -112 -226
-203 -378 -203 -179 0 -331 90 -403 237 -25 50 -29 72 -32 165 -5 150 24 226
124 318 112 105 287 145 431 100z m942 4 c92 -27 142 -56 201 -114 66 -65 93
-117 116 -223 16 -74 16 -81 -2 -155 -28 -118 -106 -228 -189 -268 -16 -8 -37
-18 -45 -23 -42 -24 -125 -41 -196 -41 -171 0 -318 84 -394 225 -32 59 -33 63
-33 190 0 155 12 191 98 283 109 118 293 170 444 126z"/>
<path d="M2771 4863 c-25 -9 -60 -32 -78 -52 -31 -34 -33 -40 -33 -109 0 -63
3 -78 26 -107 55 -73 138 -94 214 -55 61 31 90 82 90 156 0 52 -4 67 -30 102
-47 65 -120 90 -189 65z m75 -158 c20 -20 8 -38 -19 -29 -29 9 -29 8 -21 28 8
20 21 20 40 1z"/>
<path d="M3714 4859 c-81 -31 -126 -117 -104 -201 16 -58 34 -84 80 -113 65
-41 149 -29 205 29 63 65 60 192 -6 253 -21 19 -99 54 -118 52 -3 0 -29 -9
-57 -20z"/>
<path d="M4716 5420 c-39 -7 -58 -19 -101 -61 -55 -55 -71 -93 -66 -169 5
-106 6 -503 1 -615 -3 -71 -2 -137 2 -145 4 -8 10 -37 13 -64 5 -39 15 -58 51
-96 53 -57 56 -58 316 -66 141 -5 187 -3 230 9 29 9 79 19 111 22 31 4 60 11
63 16 3 5 35 28 72 52 37 25 93 67 125 96 32 28 64 51 71 51 7 0 27 -19 44
-42 112 -154 235 -220 422 -229 17 -1 123 16 187 29 25 6 66 5 100 0 90 -14
177 2 208 38 32 38 125 41 125 4 0 -30 84 -52 173 -46 40 3 84 9 98 14 25 10
78 56 95 82 5 8 19 20 31 27 20 11 25 8 57 -36 31 -42 44 -51 104 -70 77 -24
106 -25 177 -8 47 11 79 33 151 105 23 23 23 23 51 4 15 -10 48 -32 73 -47 25
-16 55 -38 67 -48 12 -11 26 -16 32 -13 5 4 36 -2 68 -13 79 -27 183 -29 258
-6 33 10 80 18 105 17 236 -5 278 10 329 123 20 42 24 650 5 713 -13 46 -61
103 -106 127 -39 21 -126 29 -175 16 -45 -12 -107 -5 -211 23 -46 13 -62 13
-127 1 -94 -18 -221 -67 -259 -100 -16 -14 -32 -25 -35 -25 -3 0 -13 -12 -22
-28 -8 -15 -27 -33 -41 -41 -30 -16 -34 -13 -101 57 -127 133 -284 171 -465
112 -49 -16 -69 -18 -118 -10 -117 19 -168 11 -227 -37 -38 -30 -63 -29 -103
6 -49 43 -125 58 -214 41 -62 -12 -76 -11 -137 6 -109 29 -209 25 -325 -14
-84 -28 -104 -40 -154 -87 -31 -30 -61 -55 -66 -55 -20 0 -69 62 -63 80 4 13
-15 39 -67 90 -126 124 -133 130 -150 130 -10 0 -37 11 -62 25 -79 44 -154 56
-371 60 -110 2 -222 0 -249 -5z m434 -111 c132 -15 234 -68 327 -168 110 -119
143 -374 70 -541 -43 -98 -139 -197 -237 -241 -95 -44 -127 -48 -385 -49 -137
-1 -254 -1 -260 -1 -10 1 -12 992 -2 1008 7 11 374 5 487 -8z m1025 -207 c66
-24 115 -50 115 -62 0 -22 28 -8 40 19 11 28 13 29 103 33 112 6 129 0 119
-45 -4 -17 -7 -174 -7 -347 0 -173 3 -330 7 -347 10 -44 -6 -50 -123 -45 l-95
4 -12 30 -11 30 -37 -28 c-54 -41 -99 -57 -184 -61 -156 -9 -305 76 -373 215
-69 138 -52 339 38 457 100 132 282 195 420 147z m1103 -1 c98 -34 162 -103
195 -211 15 -47 17 -94 15 -319 l-3 -264 -135 0 -135 0 4 245 c3 225 2 247
-15 274 -29 45 -45 53 -100 54 -55 0 -77 -15 -108 -78 -15 -29 -17 -66 -16
-255 1 -122 1 -226 1 -232 -1 -6 -53 -10 -136 -10 l-135 0 2 395 3 395 95 -4
c52 -2 97 -5 99 -7 2 -1 6 -18 10 -35 8 -41 22 -45 52 -16 24 24 53 41 119 70
47 21 124 20 188 -2z m827 -2 c33 -11 74 -32 92 -45 17 -13 34 -24 37 -24 3 0
12 13 20 29 15 28 18 29 108 33 51 3 98 3 103 1 6 -2 10 -142 10 -393 0 -251
-4 -391 -10 -393 -5 -2 -54 -1 -108 1 -92 4 -99 5 -109 28 -14 30 -18 30 -54
2 -45 -36 -93 -51 -177 -55 -116 -7 -216 31 -298 110 -49 49 -59 62 -90 127
-19 39 -22 63 -23 175 -1 130 -1 130 34 199 39 76 106 144 173 174 124 57 197
64 292 31z"/>
<path d="M4944 5061 c-2 -2 -4 -118 -4 -258 l0 -253 78 7 c42 3 85 10 94 14 9
5 24 9 33 9 33 0 95 51 125 102 26 47 30 63 30 131 0 86 -11 116 -65 175 -44
49 -88 65 -193 71 -52 3 -96 4 -98 2z m199 -159 c9 -8 17 -27 17 -42 0 -14 5
-31 11 -37 29 -29 -18 -104 -73 -117 -24 -5 -29 -3 -35 21 -11 40 -6 172 7
188 12 15 47 9 73 -13z"/>
<path d="M6043 4859 c-76 -35 -118 -129 -94 -210 26 -85 82 -128 166 -128 154
0 231 183 127 302 -21 24 -98 57 -131 56 -14 0 -45 -9 -68 -20z"/>
<path d="M7975 4860 c-22 -9 -53 -32 -70 -49 -28 -30 -30 -38 -30 -109 0 -66
3 -82 25 -110 75 -100 215 -97 285 6 20 29 25 49 25 98 0 52 -4 67 -30 102
-33 46 -95 82 -137 81 -15 0 -46 -9 -68 -19z"/>
<path d="M9011 5419 c-37 -7 -54 -19 -101 -69 l-56 -61 2 -477 c0 -353 4 -477
12 -480 7 -2 12 -9 12 -16 0 -6 13 -20 29 -29 17 -10 32 -25 35 -35 20 -62
295 -61 323 1 6 12 23 29 39 37 16 8 34 21 39 28 9 11 21 8 64 -14 29 -16 55
-34 58 -41 13 -32 76 -57 156 -60 94 -3 112 -15 122 -76 4 -23 12 -51 18 -62
6 -11 10 -24 9 -28 -1 -5 5 -21 15 -37 9 -16 14 -33 10 -37 -4 -4 -36 -8 -70
-9 -62 -1 -62 -1 -97 42 -37 45 -79 67 -108 57 -9 -3 -34 -22 -54 -41 -35 -33
-38 -40 -38 -93 0 -31 -6 -72 -14 -90 -7 -19 -17 -55 -20 -81 -8 -53 -17 -63
-49 -54 -28 7 -49 55 -53 117 -7 139 -28 193 -86 229 -52 31 -81 26 -129 -24
-24 -25 -48 -61 -54 -82 -11 -42 -38 -56 -58 -31 -7 8 -35 18 -62 22 -43 5
-53 3 -69 -14 -11 -12 -27 -21 -37 -21 -9 0 -19 -6 -22 -12 -3 -8 -17 1 -38
25 -19 20 -39 37 -44 37 -6 0 -29 -10 -52 -22 l-42 -22 -25 23 c-23 21 -31 23
-128 19 -81 -2 -115 -8 -159 -27 l-56 -23 -40 26 c-42 28 -68 32 -161 24 -39
-3 -59 -11 -80 -31 -25 -24 -31 -26 -67 -16 -22 6 -48 20 -57 32 -16 20 -25
22 -122 21 -102 -2 -107 -3 -145 -33 -21 -17 -42 -31 -46 -31 -4 0 -25 15 -49
34 l-41 35 -70 -9 c-43 -6 -101 -6 -151 0 -107 13 -164 7 -223 -25 l-49 -27
-39 20 c-59 32 -126 41 -204 28 -44 -7 -47 -6 -92 36 -51 48 -111 88 -132 88
-8 0 -17 5 -20 10 -3 6 -35 10 -70 10 -82 0 -146 -27 -177 -74 -13 -20 -29
-36 -36 -36 -13 0 -52 -79 -52 -105 0 -8 -4 -16 -9 -19 -13 -8 -78 21 -88 39
-32 56 -218 77 -298 34 -45 -24 -95 -26 -110 -5 -19 25 -90 37 -170 30 l-76
-7 -53 55 c-32 32 -66 58 -82 61 -27 5 -69 -12 -115 -45 -13 -9 -24 -8 -52 5
-43 21 -81 22 -97 2 -7 -8 -18 -15 -24 -15 -7 0 -25 -14 -42 -31 -28 -30 -31
-31 -99 -26 -62 4 -81 1 -145 -24 -89 -34 -101 -35 -125 -9 -10 11 -30 20 -44
20 -15 0 -34 -9 -44 -20 -22 -26 -70 -26 -113 1 -24 15 -49 20 -91 19 -32 0
-116 1 -188 3 l-130 4 -50 48 c-47 44 -53 47 -93 42 -35 -4 -52 -14 -85 -47
l-42 -42 -100 6 c-92 6 -103 5 -127 -13 -14 -12 -32 -21 -39 -21 -7 0 -21 -7
-30 -16 -17 -15 -21 -15 -53 0 -19 9 -38 21 -41 26 -3 6 -21 10 -38 10 -18 1
-45 7 -62 14 -26 11 -40 10 -100 -7 -38 -10 -80 -25 -92 -33 -20 -12 -26 -11
-59 8 -47 28 -111 37 -204 29 l-75 -6 -62 61 c-73 72 -119 89 -218 82 -133
-11 -218 -118 -233 -293 -5 -62 -4 -105 5 -140 6 -27 14 -61 17 -75 8 -36 88
-124 133 -145 52 -25 177 -26 218 -3 17 9 41 23 55 30 14 7 28 17 31 21 7 10
43 -7 73 -35 50 -46 225 -42 266 7 15 18 46 20 56 4 3 -6 22 -18 41 -25 32
-14 38 -13 88 12 58 30 50 30 128 -12 26 -14 31 -14 69 5 l42 20 57 -25 c48
-22 67 -25 126 -21 69 5 135 25 147 46 11 17 37 13 61 -9 30 -29 126 -38 160
-16 17 11 30 14 38 8 7 -5 29 -13 50 -16 37 -7 41 -5 91 46 29 29 55 59 57 67
6 17 76 -29 139 -90 l43 -42 104 5 c95 4 106 7 131 31 30 28 56 35 68 16 3 -6
30 -21 58 -34 41 -18 60 -21 101 -15 57 8 100 24 110 40 4 6 17 10 28 8 12 -1
28 1 35 6 8 4 19 0 30 -12 26 -30 108 -36 134 -10 21 21 18 22 83 -26 9 -7 24
-2 47 16 48 36 83 43 107 19 10 -10 39 -21 64 -25 26 -4 49 -11 52 -16 7 -12
61 -2 100 19 38 20 96 41 113 41 8 0 21 -9 30 -20 26 -31 75 -36 98 -12 11 12
32 26 48 32 25 9 31 7 51 -14 13 -14 36 -28 50 -32 23 -6 33 -1 62 30 19 20
37 36 41 36 4 0 18 16 31 35 13 19 27 35 32 35 4 0 34 -25 65 -55 65 -64 100
-81 184 -91 54 -6 64 -4 112 23 71 40 105 47 133 29 12 -8 50 -26 84 -40 55
-24 65 -25 109 -15 26 7 68 24 94 38 40 22 51 24 65 13 49 -34 61 -36 124 -17
56 17 63 18 107 2 53 -18 93 -14 118 14 15 17 19 17 33 5 21 -19 111 -66 125
-66 7 0 36 -25 66 -56 49 -50 58 -55 88 -50 19 3 54 23 85 50 28 25 57 46 63
46 6 0 19 9 29 20 10 11 24 20 31 20 7 0 18 9 24 20 12 23 42 26 59 6 18 -21
120 -49 181 -49 39 0 73 8 112 25 51 24 59 25 83 12 45 -23 102 -18 127 11 28
32 44 32 77 -2 15 -16 47 -39 70 -53 23 -14 65 -47 92 -74 45 -44 52 -48 85
-43 44 7 102 45 110 72 4 11 9 22 13 25 21 17 52 76 72 137 29 87 48 97 81 44
12 -20 25 -40 28 -46 21 -40 49 -69 83 -87 55 -28 184 -29 285 -3 59 15 77 17
92 7 26 -16 55 -15 88 2 21 11 39 12 78 5 43 -8 59 -6 99 11 l47 20 50 -25
c27 -14 55 -25 61 -25 6 0 25 14 43 31 25 24 36 29 58 23 15 -3 34 -17 43 -30
20 -30 36 -30 90 1 l43 26 34 -26 c41 -31 62 -32 108 0 44 30 43 30 67 6 29
-29 93 -36 149 -16 45 16 50 16 97 0 28 -10 66 -21 85 -26 46 -11 126 7 144
33 8 11 19 17 25 14 6 -4 19 -1 30 6 15 9 23 9 35 -1 8 -7 20 -10 25 -7 5 4
14 -2 20 -11 8 -15 27 -18 128 -21 l119 -4 47 51 c34 36 46 57 42 70 -3 10 0
23 8 29 16 14 13 338 -4 358 -6 7 -8 22 -5 32 5 15 -6 32 -41 66 -62 59 -97
62 -148 10 -20 -19 -51 -42 -70 -50 -19 -8 -35 -18 -35 -22 0 -13 -75 -52 -98
-52 -12 0 -24 -5 -27 -11 -5 -7 -15 -3 -29 10 -12 11 -41 27 -64 35 -38 14
-50 13 -126 -3 l-85 -19 -37 34 c-20 19 -39 34 -42 34 -2 0 -15 11 -28 25 -31
34 -96 35 -119 3 l-16 -23 -19 25 c-36 47 -35 75 4 134 20 30 45 74 56 98 11
24 27 54 34 68 8 14 19 41 26 60 30 87 42 115 60 140 10 15 31 58 45 96 35 93
78 138 91 97 3 -10 12 -31 20 -48 20 -44 64 -184 73 -230 9 -46 57 -122 102
-160 61 -51 85 -58 187 -53 85 4 97 7 110 26 8 12 22 22 32 22 13 0 17 6 13
20 -4 15 0 20 13 20 11 0 25 9 32 20 15 24 35 26 53 4 7 -8 30 -24 51 -35 21
-11 38 -26 38 -34 0 -8 6 -15 14 -15 7 0 19 -7 26 -15 9 -11 34 -15 100 -15
75 0 94 4 131 25 63 35 113 93 128 145 33 114 46 124 85 63 33 -53 171 -193
189 -193 8 0 20 -6 26 -14 6 -7 28 -16 49 -20 20 -3 50 -13 66 -21 47 -25 282
-15 321 14 6 4 28 13 51 19 22 7 49 21 59 32 10 11 22 20 28 20 5 0 38 30 73
67 66 69 82 105 99 212 4 24 14 59 21 77 8 18 14 65 14 104 0 56 -6 83 -28
133 -16 34 -32 74 -35 87 -15 60 -159 182 -255 217 -181 67 -351 52 -488 -42
-28 -19 -59 -35 -70 -35 -11 0 -41 18 -67 39 -70 58 -174 76 -269 48 -31 -10
-64 -33 -112 -80 -37 -37 -71 -67 -76 -67 -5 0 -10 10 -12 22 -2 12 -12 25
-24 28 -20 5 -39 19 -77 56 -34 32 -86 38 -140 15 -25 -11 -48 -28 -52 -40 -6
-20 -66 -61 -88 -61 -7 1 -40 27 -75 59 -36 34 -78 62 -100 69 -57 16 -468 13
-508 -4 -18 -7 -60 -41 -95 -74 -34 -33 -66 -60 -71 -60 -4 0 -42 27 -84 60
-91 72 -97 76 -153 85 -75 12 -111 32 -111 60 0 40 -55 118 -100 144 -35 20
-55 23 -160 24 l-119 1 -40 -32 c-22 -18 -43 -32 -47 -32 -4 0 -22 -11 -40
-25 -18 -14 -37 -25 -42 -25 -6 0 -25 14 -43 32 -69 66 -93 77 -176 81 -43 2
-98 0 -122 -4z m822 -117 c-4 -9 -20 -33 -37 -52 -17 -19 -71 -96 -120 -170
-50 -74 -107 -158 -128 -186 -21 -28 -38 -57 -38 -64 0 -7 17 -36 38 -64 41
-56 109 -154 132 -191 27 -43 75 -110 93 -129 9 -11 17 -23 17 -28 0 -4 16
-26 36 -48 49 -54 41 -75 -23 -66 -25 3 -99 6 -164 6 l-118 0 -16 28 c-9 15
-23 39 -33 54 -87 135 -160 257 -177 293 -7 17 -23 39 -34 49 -18 16 -21 17
-26 4 -7 -18 11 -376 20 -399 4 -10 1 -20 -5 -24 -17 -11 -280 -9 -288 1 -4 5
-6 234 -4 509 l2 500 141 -1 c77 -1 142 -4 145 -7 3 -2 0 -87 -6 -188 -13
-228 -12 -229 1 -229 15 0 33 23 65 85 35 66 51 94 74 130 11 17 24 39 30 50
6 11 18 32 28 46 9 15 28 45 41 68 l25 41 115 1 c64 0 134 4 156 8 45 8 67 -2
58 -27z m2652 -201 c90 -29 125 -49 186 -110 80 -81 134 -213 127 -311 l-3
-44 -297 1 c-332 1 -318 5 -273 -67 25 -39 67 -65 128 -77 32 -7 102 21 132
53 18 19 35 22 152 27 73 3 135 2 138 -3 5 -8 -4 -33 -31 -82 -8 -15 -38 -51
-67 -80 -135 -139 -349 -167 -532 -71 -46 24 -77 52 -122 108 -40 52 -57 92
-77 180 -14 65 -14 76 3 151 10 45 31 105 47 134 88 162 309 248 489 191z
m-2398 -27 c7 -10 13 -27 13 -39 0 -12 7 -30 15 -41 8 -10 15 -28 15 -39 0
-11 7 -29 15 -39 8 -11 15 -28 15 -38 0 -9 6 -32 14 -50 8 -18 22 -60 31 -93
10 -33 21 -64 25 -68 12 -14 32 21 52 91 10 37 23 81 28 97 4 17 18 55 30 85
13 30 25 69 27 87 6 38 39 77 60 69 8 -3 134 -6 279 -6 256 0 264 -1 264 -20
0 -11 6 -37 14 -57 22 -63 45 -154 65 -262 6 -30 14 -58 19 -63 11 -11 52 42
52 66 0 8 7 32 16 53 9 21 23 52 30 68 7 17 27 60 43 98 17 37 31 74 31 82 0
8 12 22 26 31 42 28 72 10 102 -61 26 -63 77 -178 93 -208 5 -9 16 -39 25 -65
21 -62 32 -76 50 -61 8 6 14 21 14 32 0 11 5 38 11 61 6 22 17 68 26 101 8 33
21 82 29 109 8 26 14 59 14 72 0 13 6 24 13 24 220 5 270 4 278 -1 6 -4 4 -21
-7 -45 -43 -98 -62 -153 -74 -204 -4 -19 -12 -46 -18 -60 -5 -14 -18 -52 -27
-85 -17 -56 -23 -77 -55 -165 -6 -19 -15 -51 -19 -70 -4 -19 -13 -45 -19 -57
-7 -12 -12 -36 -12 -53 0 -41 -16 -46 -140 -42 l-101 3 -16 37 c-9 20 -22 52
-29 70 -8 17 -20 47 -28 65 -28 65 -46 118 -46 136 0 11 -6 21 -12 24 -21 7
-48 -12 -48 -34 0 -12 -6 -35 -14 -52 -17 -39 -70 -170 -86 -214 l-12 -33
-114 0 c-64 0 -115 4 -119 10 -6 10 -27 80 -46 155 -6 22 -14 44 -20 49 -5 6
-9 22 -9 36 0 14 -6 34 -14 45 -7 11 -16 34 -18 50 -3 17 -11 46 -18 65 -7 19
-18 51 -25 70 -7 19 -21 62 -30 95 -10 33 -25 80 -33 105 -8 25 -16 52 -19 60
-3 12 -10 8 -29 -13 -13 -15 -24 -35 -24 -44 0 -8 -6 -27 -13 -41 -8 -15 -21
-44 -30 -65 -9 -20 -24 -54 -33 -75 -9 -20 -22 -52 -30 -69 -8 -18 -20 -48
-28 -65 -21 -48 -41 -95 -75 -171 -17 -37 -31 -73 -31 -81 0 -7 -7 -19 -15
-26 -8 -7 -15 -19 -15 -27 0 -13 -11 -38 -41 -93 -5 -8 -18 -34 -30 -57 -26
-49 -115 -153 -132 -153 -6 0 -18 -6 -26 -14 -22 -19 -152 -46 -223 -46 l-59
0 3 123 3 122 68 -4 c73 -3 102 8 144 58 33 38 28 74 -23 180 -25 53 -51 110
-59 126 -7 17 -27 62 -45 100 -38 84 -56 125 -64 145 -3 8 -10 22 -15 30 -35
59 -88 186 -81 195 5 6 63 9 146 8 119 -2 140 -5 151 -19z m-317 -221 c17 -32
38 -78 46 -102 8 -24 26 -63 40 -87 14 -24 23 -48 19 -53 -3 -6 8 -35 25 -65
18 -30 30 -65 28 -76 -3 -19 -5 -19 -40 10 -20 17 -47 51 -59 75 -13 25 -31
53 -41 62 -10 9 -18 21 -18 27 0 6 -14 26 -30 45 -86 93 -103 157 -52 198 15
12 32 22 39 23 6 0 26 -26 43 -57z m-4516 -886 c13 -36 -2 -61 -38 -65 -35 -4
-56 13 -56 47 0 36 19 53 55 49 22 -2 32 -10 39 -31z m3945 17 c2 -1 2 -96 2
-209 l-2 -207 110 3 c121 4 135 -1 129 -47 l-3 -29 -160 0 -160 0 -3 244 c-2
189 1 246 10 253 11 7 66 2 77 -8z m379 4 c16 -16 15 -63 -2 -77 -8 -7 -30
-11 -48 -9 -29 3 -33 7 -36 36 -2 19 -1 40 2 48 7 17 67 19 84 2z m746 -1 c28
-20 18 -69 -17 -81 -36 -13 -61 2 -65 40 -4 30 18 54 48 54 9 0 24 -6 34 -13z
m-7848 -19 c51 -41 73 -72 74 -105 0 -27 -5 -34 -26 -39 -22 -6 -33 1 -73 45
-52 56 -68 61 -116 31 -38 -24 -45 -48 -45 -166 0 -125 21 -163 92 -164 28 0
42 7 62 31 14 17 26 34 26 39 0 13 37 22 60 15 29 -9 25 -45 -10 -93 -38 -53
-76 -72 -141 -72 -63 0 -110 26 -145 81 -22 36 -24 47 -24 179 l0 140 48 50
48 50 71 0 c58 0 75 -4 99 -22z m3992 -1 c47 -35 72 -71 72 -105 0 -55 -55
-54 -90 2 -47 77 -138 66 -161 -18 -7 -23 -9 -81 -7 -134 5 -79 9 -96 28 -117
17 -18 34 -25 59 -25 40 1 58 12 84 53 14 21 25 27 52 27 31 0 35 -3 35 -27 0
-15 -9 -41 -21 -57 -36 -53 -68 -70 -136 -74 -74 -5 -120 18 -159 79 -22 36
-24 48 -24 169 0 121 2 133 24 168 44 68 66 80 152 81 48 1 66 -4 92 -22z
m4805 -227 l-2 -245 -33 2 c-52 4 -60 4 -120 -3 -54 -6 -58 -5 -83 22 -40 43
-45 65 -41 177 l5 102 37 33 c41 35 85 42 118 17 11 -8 26 -15 33 -15 16 0 17
50 2 103 -13 49 -6 59 44 55 l42 -3 -2 -245z m-7464 211 c10 -7 12 -20 7 -50
-6 -37 -4 -41 19 -47 47 -12 42 -84 -6 -84 -17 0 -19 -9 -19 -87 0 -95 4 -109
35 -114 15 -3 20 -12 20 -39 0 -33 -2 -35 -39 -38 -29 -3 -44 2 -62 19 -23 21
-24 29 -24 138 0 105 -2 117 -20 129 -25 16 -25 37 0 69 15 20 19 35 14 59 -3
18 -3 37 1 43 8 13 55 14 74 2z m1228 -36 c1 -22 2 -46 2 -52 1 -7 12 -13 25
-13 44 0 40 -70 -5 -80 -23 -6 -24 -9 -22 -90 1 -47 2 -88 2 -92 1 -4 13 -13
29 -20 20 -10 27 -20 27 -43 0 -28 -3 -30 -42 -33 -35 -3 -48 2 -69 23 -25 25
-25 29 -23 135 2 102 1 112 -19 130 -27 26 -28 42 -2 65 14 13 20 31 20 60 0
50 5 57 45 53 28 -3 30 -6 32 -43z m5468 -5 c0 -39 4 -46 28 -58 43 -21 32
-82 -15 -82 -17 0 -18 -8 -16 -92 3 -90 4 -93 31 -106 22 -11 27 -20 27 -48 0
-34 0 -34 -45 -34 -33 0 -50 6 -65 22 -18 19 -20 35 -20 140 0 74 -4 118 -10
118 -6 0 -16 11 -22 25 -10 22 -8 29 11 49 18 19 22 31 16 56 -9 41 9 62 49
58 30 -3 31 -5 31 -48z m-1792 -60 c5 -4 13 -25 18 -46 6 -22 14 -55 19 -74
15 -58 41 -113 49 -104 4 5 15 43 25 84 32 136 59 174 111 154 18 -7 14 -44
-11 -99 -15 -34 -27 -68 -89 -249 -45 -133 -62 -159 -114 -173 -28 -7 -55 7
-59 31 -5 25 25 66 48 66 23 0 40 28 40 67 0 26 -39 135 -54 150 -3 3 -6 13
-6 21 0 14 -20 65 -46 115 -19 38 -18 65 4 70 19 5 53 -2 65 -13z m-5875 -7
c64 -40 67 -48 67 -171 l0 -113 -37 -35 c-34 -30 -44 -34 -94 -34 -61 0 -97
16 -129 58 -17 23 -20 43 -20 127 0 84 3 104 20 127 41 54 139 75 193 41z
m233 0 c26 -16 29 -16 47 0 44 40 130 3 157 -66 12 -32 15 -71 13 -162 l-3
-120 -42 -3 -43 -3 0 136 0 135 -27 11 c-34 13 -79 3 -88 -19 -3 -9 -6 -66 -5
-127 1 -60 1 -116 1 -123 -1 -9 -14 -12 -43 -10 l-43 3 0 170 c-1 94 3 176 8
183 13 17 34 15 68 -5z m520 0 c53 -19 63 -41 33 -74 -14 -16 -19 -16 -49 -3
-60 25 -135 17 -135 -15 0 -30 22 -41 81 -41 42 0 65 -6 90 -23 31 -21 34 -28
37 -78 3 -50 0 -57 -28 -84 -28 -26 -39 -30 -105 -33 -61 -3 -82 0 -120 18
-50 24 -54 36 -26 71 l19 24 45 -23 c56 -28 108 -29 133 -1 31 34 9 52 -81 64
-91 13 -115 33 -115 97 0 50 13 74 53 98 40 25 104 26 168 3z m421 0 c19 -17
21 -17 50 0 38 22 86 22 110 0 22 -20 22 -32 0 -59 -15 -18 -26 -21 -69 -17
-72 7 -81 -12 -71 -149 4 -57 6 -109 3 -116 -3 -9 -19 -12 -47 -10 l-42 3 2
173 c1 95 4 177 7 183 9 14 37 11 57 -8z m303 -116 c0 -123 1 -129 24 -148 31
-26 57 -24 86 5 23 23 24 30 19 103 -3 43 -7 91 -9 106 -7 44 10 67 50 67 26
0 35 -4 36 -17 0 -10 0 -92 1 -183 l0 -165 -34 3 c-47 3 -66 3 -124 -4 -47 -5
-55 -3 -85 24 l-33 30 -6 133 c-7 162 -2 181 42 177 l33 -3 0 -128z m523 113
c48 -23 57 -58 20 -82 -19 -13 -25 -12 -56 4 -70 35 -121 -2 -122 -88 0 -88
49 -128 115 -93 44 24 50 24 75 -1 29 -29 25 -45 -15 -70 -30 -19 -47 -22
-107 -18 -68 4 -73 6 -104 42 -37 43 -50 103 -39 188 14 115 124 170 233 118z
m401 6 c8 -9 11 -66 9 -182 l-3 -169 -35 0 -35 0 -3 169 c-3 174 2 196 38 196
10 0 23 -6 29 -14z m320 -10 c93 -59 96 -253 5 -325 -25 -20 -38 -22 -94 -19
-72 4 -94 17 -124 75 -25 50 -22 168 7 217 43 76 132 98 206 52z m220 7 c10
-17 12 -17 41 0 50 27 91 22 136 -17 l39 -34 3 -151 4 -152 -44 3 -43 3 3 120
c4 133 -2 151 -53 161 -22 4 -37 0 -54 -13 -21 -17 -23 -26 -24 -143 l-2 -125
-35 0 -35 0 -3 160 c-1 88 0 170 3 183 7 27 49 30 64 5z m1062 -8 c45 -29 54
-46 63 -130 10 -85 -5 -143 -48 -182 -31 -29 -42 -33 -92 -33 -110 0 -148 48
-149 185 0 79 3 94 23 120 54 69 132 84 203 40z m221 8 c18 -16 21 -16 47 0
43 25 76 21 116 -14 l35 -31 31 31 c39 40 88 42 135 6 42 -32 51 -64 59 -209
8 -131 6 -136 -52 -136 -19 0 -33 5 -34 13 0 6 0 65 1 129 1 115 1 117 -25
134 -20 13 -33 15 -58 7 l-32 -9 -3 -137 -3 -137 -44 0 -44 0 -3 137 -3 137
-32 9 c-25 8 -38 6 -59 -8 l-26 -17 3 -126 4 -127 -34 -3 c-18 -2 -38 1 -44 7
-10 10 -12 335 -2 352 10 15 47 10 67 -8z m577 0 c10 -17 12 -17 41 0 52 28
91 22 133 -20 l37 -36 0 -113 0 -113 -34 -35 c-27 -29 -41 -36 -72 -36 -22 0
-50 7 -62 16 -12 8 -26 13 -31 10 -5 -3 -7 -42 -4 -85 5 -74 4 -79 -16 -86
-11 -3 -29 -4 -39 -1 -18 6 -19 21 -17 254 1 136 3 250 4 255 2 14 50 7 60
-10z m504 -3 c59 -35 69 -67 65 -215 l-3 -130 -107 -3 c-101 -2 -108 -1 -137
24 -36 30 -48 78 -32 126 16 48 55 68 133 68 36 0 67 3 70 6 12 12 -6 45 -31
59 -23 12 -34 11 -75 -2 -46 -15 -48 -15 -68 5 -23 23 -19 49 9 58 10 3 25 9
33 14 28 17 107 11 143 -10z m228 4 c17 -15 20 -15 43 0 41 26 90 21 125 -14
35 -35 47 -87 54 -233 5 -95 5 -97 -18 -103 -13 -3 -34 -4 -46 -2 -24 3 -24 4
-20 119 2 72 -1 124 -8 137 -16 29 -66 38 -98 17 l-25 -17 3 -126 4 -127 -42
-3 -43 -3 0 185 0 186 27 0 c14 0 35 -7 44 -16z m1192 4 c14 -11 17 -37 18
-175 0 -89 -2 -167 -6 -172 -7 -12 -75 -15 -75 -3 -5 214 -4 331 2 345 10 20
37 22 61 5z m176 -5 c10 -17 12 -17 41 0 46 25 81 21 118 -13 18 -16 35 -30
37 -30 1 0 17 14 35 30 38 36 78 39 125 10 54 -33 66 -77 63 -220 l-3 -125
-40 0 -40 0 -1 122 c-1 67 -4 129 -7 137 -9 24 -64 30 -94 11 l-25 -17 3 -127
4 -126 -40 0 -40 0 0 115 c0 63 -4 125 -8 136 -12 34 -68 44 -102 18 -18 -14
-20 -27 -20 -142 l0 -127 -37 -3 c-26 -2 -38 1 -39 10 -3 61 2 341 6 349 10
16 53 10 64 -8z m583 -2 c11 -11 13 -330 1 -342 -6 -6 -25 -9 -44 -7 l-33 3 1
174 c2 184 5 197 48 185 11 -4 23 -9 27 -13z m519 0 c46 -28 70 -74 72 -140
l2 -56 -95 -2 c-52 -1 -101 -2 -107 -2 -23 -1 -14 -39 14 -61 29 -23 53 -23
110 1 28 12 34 11 52 -6 12 -10 21 -23 21 -29 -1 -24 -53 -49 -115 -54 -53 -4
-69 -1 -97 16 -42 26 -56 50 -68 112 -11 59 4 155 29 186 42 52 127 68 182 35z"/>
<path d="M12300 4893 c-43 -21 -92 -72 -88 -93 3 -12 28 -15 156 -16 116 -1
155 2 159 12 7 19 -46 74 -92 95 -50 23 -90 23 -135 2z"/>
<path d="M11087 3762 c-23 -25 -24 -148 -1 -180 15 -22 57 -30 80 -14 36 24
48 148 18 190 -19 28 -74 30 -97 4z"/>
<path d="M2733 3770 c-27 -11 -37 -41 -35 -109 1 -64 24 -94 71 -94 48 0 71
34 71 105 0 49 -4 63 -25 83 -25 26 -45 30 -82 15z"/>
<path d="M5447 3773 c-24 -6 -37 -43 -37 -109 0 -45 4 -59 25 -79 28 -29 36
-30 74 -10 33 16 44 61 34 132 -8 60 -38 81 -96 66z"/>
<path d="M6715 3755 c-21 -20 -25 -34 -25 -83 0 -49 4 -64 25 -86 29 -31 53
-33 89 -5 23 18 26 27 26 87 0 73 -4 83 -37 101 -33 17 -51 14 -78 -14z"/>
<path d="M7667 3762 c-25 -28 -24 -163 1 -185 28 -25 67 -21 91 9 30 38 30
145 1 174 -25 25 -72 26 -93 2z"/>
<path d="M8016 3637 c-12 -9 -17 -23 -14 -42 3 -29 5 -30 58 -33 43 -3 57 1
67 14 18 24 16 61 -3 68 -27 10 -89 7 -108 -7z"/>
<path d="M10741 3773 c-31 -15 -48 -44 -36 -63 3 -5 35 -10 70 -10 72 0 86 14
55 53 -26 32 -51 38 -89 20z"/>
<path d="M13485 940 c0 -294 1 -415 2 -267 2 147 2 387 0 535 -1 147 -2 26 -2
-268z"/>
<path d="M13477 383 c-3 -10 -6 -78 -6 -151 -1 -73 -5 -141 -9 -152 -7 -20
-33 -20 -6722 -20 l-6715 -1 -12 23 c-12 22 -13 20 -13 -17 l0 -40 6750 0
6750 0 0 182 c-1 163 -9 227 -23 176z"/>
<path d="M2 290 c0 -19 2 -27 5 -17 2 9 2 25 0 35 -3 9 -5 1 -5 -18z"/>
</g>
</svg>
